HIERARCHY
ROOT Hips
{
     OFFSET 21.13820 95.41870 -6.16536
     CHANNELS 6 Xposition Yposition Zposition Zrotation Xrotation Yrotation
     JOINT Spine
     {
          OFFSET 0.00000 11.89050 0.00000
          CHANNELS 3 Zrotation Xrotation Yrotation
          JOINT Spine1
          {
               OFFSET 0.00000 25.65740 0.12766
               CHANNELS 3 Zrotation Xrotation Yrotation
               JOINT HEad
               {
                    OFFSET 0.00000 8.73416 0.01134
                    CHANNELS 3 Zrotation Xrotation Yrotation
                    End Site
                    {
                         OFFSET -0.29000 12.77420 2.51395
                    }
               }
               JOINT LeftShoulder1
               {
                    OFFSET 8.99000 -0.36225 -0.22000
                    CHANNELS 3 Zrotation Xrotation Yrotation
                    JOINT LeftArm
                    {
                         OFFSET 10.28270 -0.00338 0.32212
                         CHANNELS 3 Zrotation Xrotation Yrotation
                         JOINT LeftForeArm
                         {
                              OFFSET 32.76690 0.09914 -1.42434
                              CHANNELS 3 Zrotation Xrotation Yrotation
                              JOINT LeftHand
                              {
                                   OFFSET 27.56430 0.08536 1.02216
                                   CHANNELS 3 Zrotation Xrotation Yrotation
                                   End Site
                                   {
                                        OFFSET 16.74430 -0.60000 1.50291
                                   }
                              }
                         }
                    }
               }
               JOINT RightShoulder
               {
                    OFFSET -8.99000 -0.36225 -0.22000
                    CHANNELS 3 Zrotation Xrotation Yrotation
                    JOINT RightArm
                    {
                         OFFSET -10.28270 -0.00338 0.32212
                         CHANNELS 3 Zrotation Xrotation Yrotation
                         JOINT RightForeArm
                         {
                              OFFSET -32.89710 0.09914 -1.42434
                              CHANNELS 3 Zrotation Xrotation Yrotation
                              JOINT RightHand
                              {
                                   OFFSET -27.49210 0.08536 1.02216
                                   CHANNELS 3 Zrotation Xrotation Yrotation
                                   End Site
                                   {
                                        OFFSET -16.63120 -0.60000 1.50291
                                   }
                              }
                         }
                    }
               }
          }
     }
     JOINT LeftUpLeg
     {
          OFFSET 8.94580 -8.66707 0.10165
          CHANNELS 3 Zrotation Xrotation Yrotation
          JOINT LeftLeg
          {
               OFFSET 0.00000 -44.42270 1.37270
               CHANNELS 3 Zrotation Xrotation Yrotation
               JOINT LeftFoot
               {
                    OFFSET -0.25355 -42.09240 -1.46059
                    CHANNELS 3 Zrotation Xrotation Yrotation
                    JOINT LeftToes
                    {
                         OFFSET -0.04000 -4.41509 8.49910
                         CHANNELS 3 Zrotation Xrotation Yrotation
                         End Site
                         {
                              OFFSET 0.08000 -0.04745 9.77979
                         }
                    }
               }
          }
     }
     JOINT RightUpLeg
     {
          OFFSET -8.94580 -8.66707 0.10165
          CHANNELS 3 Zrotation Xrotation Yrotation
          JOINT RightLeg
          {
               OFFSET 0.00000 -44.42270 1.37270
               CHANNELS 3 Zrotation Xrotation Yrotation
               JOINT RightFoot
               {
                    OFFSET 0.25355 -42.09240 -1.46059
                    CHANNELS 3 Zrotation Xrotation Yrotation
                    JOINT RightToes
                    {
                         OFFSET 0.04000 -4.41509 8.49910
                         CHANNELS 3 Zrotation Xrotation Yrotation
                         End Site
                         {
                              OFFSET -0.08000 -0.13745 9.77979
                         }
                    }
               }
          }
     }
}
MOTION
Frames: 15
Frame Time: 0.01667
19.23640 92.69720 1.53956 -19.33100 0.05134 -95.40130 -5.66100 15.40300 -2.21983 -0.90253 30.24960 -6.13718 0.69550 -4.79162 -5.37156 0.00000 0.00000 0.00000 -106.72300 -53.90060 -77.63640 -37.05990 52.85900 -79.26920 17.64200 7.20451 -13.83780 21.35110 0.28012 -1.19209 83.17370 -9.95691 69.88770 19.19480 34.57750 99.17410 16.75540 11.78040 8.07583 23.59370 -9.33304 -13.78490 -39.07530 24.81280 87.37060 -2.16529 12.17340 0.28449 2.04165 -29.19380 -65.67280 -18.37250 1.13026 6.25338 39.28550 20.69750 -42.73290 -45.25770 1.12622 3.55947 15.82950 -56.51400 24.31050 
19.73870 93.03130 1.12210 -19.22960 -0.69345 -94.17570 -6.79668 15.05890 -1.96006 -0.99235 29.75150 -6.31841 1.00584 -4.61360 -6.28616 0.00000 0.00000 0.00000 -105.82500 -53.72990 -75.83900 -37.08340 52.90670 -79.66550 17.73220 7.19999 -13.77140 22.05450 0.33321 -0.98749 82.36640 -10.29830 69.29550 19.58020 34.59780 99.09270 16.94400 11.79580 8.04210 23.30680 -8.96412 -12.63010 -40.05160 27.97850 88.68810 -1.79743 12.39370 0.22320 1.53698 -30.22330 -66.43020 -18.87660 1.77430 6.33122 39.35750 18.94080 -42.68390 -45.20350 1.45025 3.69100 15.45940 -56.08270 23.90250 
20.15820 93.35920 0.73968 -19.04610 -1.38084 -92.94870 -7.76062 14.69970 -1.68196 -1.03849 29.28140 -6.44174 1.22416 -4.68494 -7.29394 0.00000 0.00000 0.00000 -105.72500 -53.80530 -74.69090 -37.50920 53.38540 -79.66410 17.95440 7.16612 -13.75840 22.44580 0.34357 -0.95700 81.81530 -10.30610 68.84230 19.59960 34.53730 99.17740 16.94180 11.80730 8.11860 23.12420 -8.40203 -11.91500 -40.81820 30.53270 89.79090 -1.30438 12.81580 0.13953 1.26902 -30.80010 -66.60340 -19.36270 2.44305 6.36132 39.44820 17.13630 -42.51070 -45.10660 1.76767 3.81521 15.11740 -55.64560 23.54980 
20.50010 93.65230 0.40068 -18.80510 -2.00930 -91.75360 -8.58079 14.33410 -1.36584 -1.06828 28.83970 -6.45873 1.38255 -4.98596 -8.29646 0.00000 0.00000 0.00000 -106.53700 -54.28660 -74.27970 -38.51520 54.42730 -79.11150 18.28040 7.10379 -13.81980 22.55940 0.31467 -1.07851 81.53320 -10.03930 68.50440 19.26990 34.41170 99.43290 16.72170 11.81250 8.31116 23.03250 -7.64838 -11.65600 -41.40580 32.43920 90.74870 -0.82433 13.32420 0.05472 1.24603 -30.92870 -66.26330 -19.81720 3.08433 6.36648 39.55590 15.38680 -42.32580 -45.05790 2.06154 3.93370 14.86520 -55.26360 23.33800 
20.77820 93.91680 0.11158 -18.52950 -2.53276 -90.57750 -9.20699 13.95980 -1.02954 -1.09336 28.39710 -6.34909 1.52732 -5.37288 -9.17875 0.00000 0.00000 0.00000 -107.82900 -55.06610 -74.31390 -39.95080 55.76100 -78.12660 18.57390 7.03468 -13.95400 22.53930 0.27376 -1.24501 81.44840 -9.69908 68.21700 18.81410 34.27480 99.75070 16.40000 11.81570 8.57154 23.07010 -6.69997 -11.81940 -41.79800 33.65270 91.58830 -0.46134 13.72900 -0.01227 1.54471 -30.39820 -65.51910 -20.16680 3.71941 6.38029 39.63790 13.66930 -42.12610 -45.05100 2.33106 4.04596 14.65850 -54.85100 23.25330 
21.01040 94.16360 -0.12947 -18.22270 -2.92930 -89.33680 -9.60197 13.58140 -0.71214 -1.11450 27.92650 -6.14201 1.68223 -5.67388 -9.91538 0.00000 0.00000 0.00000 -108.82700 -55.80190 -74.25120 -41.28020 56.91210 -77.17250 18.73070 6.98333 -14.11330 22.52270 0.24506 -1.36193 81.46320 -9.48355 67.93230 18.51480 34.17240 99.97800 16.14610 11.82720 8.84486 23.25620 -5.60878 -12.39350 -41.96750 34.13460 92.35180 -0.27692 13.84630 -0.04695 2.21764 -28.99720 -64.44140 -20.36560 4.35673 6.39303 39.67440 11.98130 -41.89170 -44.93190 2.55649 4.12792 14.42540 -54.25470 23.27780 
21.21590 94.39690 -0.32603 -17.85740 -3.21786 -87.89960 -9.74145 13.21680 -0.46992 -1.09970 27.41870 -5.91075 1.83899 -5.80692 -10.60010 0.00000 0.00000 0.00000 -108.98700 -56.20560 -73.66400 -42.06750 57.58550 -76.64490 18.75540 6.95786 -14.24550 22.56720 0.23687 -1.39607 81.49060 -9.47385 67.64650 18.51680 34.12240 100.03400 16.05810 11.85100 9.07631 23.57250 -4.47645 -13.41510 -41.90290 33.81330 93.11860 -0.30529 13.55600 -0.04068 3.24462 -26.62730 -63.00660 -20.42680 4.97517 6.34656 39.67630 10.34160 -41.65710 -44.54850 2.74801 4.16705 14.15120 -53.45170 23.40140 
21.41400 94.62450 -0.47522 -17.38950 -3.42706 -86.14820 -9.58636 12.88530 -0.36140 -1.00773 26.86930 -5.73106 1.96786 -5.81705 -11.36500 0.00000 0.00000 0.00000 -108.37300 -56.23870 -72.52870 -42.41200 57.82080 -76.46430 18.70840 6.95195 -14.33060 22.66970 0.24049 -1.38290 81.44310 -9.62383 67.37120 18.76440 34.11590 99.95510 16.10910 11.87800 9.21927 23.97820 -3.40510 -14.91620 -41.58360 32.59450 94.01620 -0.56796 12.81680 0.00853 4.52484 -23.31780 -61.13690 -20.38700 5.56725 6.18833 39.65160 8.70176 -41.45270 -43.90660 2.95137 4.18168 13.82260 -52.52660 23.51120 
21.61890 94.83760 -0.57353 -16.79530 -3.59319 -84.04800 -9.16255 12.59150 -0.40208 -0.82514 26.27430 -5.63192 2.05536 -5.80055 -12.27150 0.00000 0.00000 0.00000 -107.31000 -56.01220 -71.02870 -42.62540 57.78280 -76.35040 18.64150 6.95782 -14.36360 22.83110 0.24026 -1.38630 81.22120 -9.84216 67.09730 19.08490 34.12500 99.85270 16.18520 11.89340 9.26265 24.39800 -2.45329 -16.82350 -40.96600 30.48060 95.13070 -1.11132 11.63890 0.10092 5.88107 -19.24130 -58.71520 -20.30030 6.10439 5.90922 39.62080 7.06538 -41.29310 -43.12550 3.12847 4.16827 13.35000 -51.49870 23.35420 
21.83840 95.02800 -0.61334 -16.10290 -3.71519 -81.65010 -8.50900 12.33150 -0.56610 -0.57454 25.64410 -5.58806 2.11811 -5.80973 -13.29120 0.00000 0.00000 0.00000 -105.84400 -55.55130 -69.21070 -42.69950 57.46670 -76.29850 18.56070 6.97504 -14.34050 23.06250 0.23078 -1.42777 80.77030 -10.08460 66.80020 19.32220 34.12940 99.82470 16.19520 11.88950 9.22812 24.77180 -1.56749 -18.95870 -39.95340 27.53940 96.34580 -1.93713 10.08660 0.22269 7.05321 -14.83820 -55.67130 -20.20440 6.59661 5.57077 39.62880 5.41504 -41.19320 -42.34440 3.19029 4.10742 12.63970 -50.28840 22.72840 
22.06770 95.15460 -0.59258 -15.37170 -3.85560 -79.06570 -7.79120 12.09830 -0.78237 -0.32595 25.00930 -5.55060 2.17471 -5.83944 -14.38020 0.00000 0.00000 0.00000 -103.79700 -54.73320 -67.02870 -42.33750 56.70290 -76.55740 18.42310 7.01133 -14.25670 23.34110 0.21669 -1.48737 80.12400 -10.34420 66.45460 19.42690 34.12130 99.88990 16.13830 11.87140 9.15079 24.99480 -0.60456 -21.06550 -38.46480 23.90340 97.35100 -2.96304 8.31136 0.34611 7.75695 -11.00770 -52.26640 -20.19380 6.44814 5.06113 39.84610 5.03167 -41.61310 -41.20360 2.55665 3.74240 11.70360 -48.82960 21.65270 
22.29670 95.18270 -0.51189 -14.65580 -4.09971 -76.40200 -7.17618 11.88620 -0.98103 -0.13185 24.40810 -5.47464 2.25254 -5.87076 -15.54060 0.00000 0.00000 0.00000 -101.15500 -53.43470 -64.58120 -41.32600 55.37820 -77.30350 18.17950 7.07708 -14.09530 23.61400 0.20272 -1.54525 79.35520 -10.60230 66.03440 19.46450 34.08740 99.97670 16.06270 11.85170 9.07733 24.94380 0.40484 -22.79020 -36.60700 20.12970 97.80380 -4.22524 6.50662 0.46639 7.91482 -8.77570 -49.22730 -20.42500 6.37948 4.70084 40.17980 4.54500 -42.16970 -40.09500 1.76423 3.33682 10.61830 -47.11230 20.24880 
22.52620 95.16220 -0.36556 -14.01050 -4.39132 -73.71720 -6.57417 11.69610 -1.14565 0.00230 23.87190 -5.32974 2.41671 -5.90855 -16.79520 0.00000 0.00000 0.00000 -98.12190 -51.64640 -62.12840 -39.69270 53.51590 -78.49530 17.81160 7.17846 -13.82830 23.83320 0.19095 -1.59302 78.54900 -10.82780 65.52010 19.55930 34.01580 99.97500 16.01900 11.84080 9.03841 24.44320 0.65321 -23.55950 -34.84680 18.29950 97.53280 -6.48463 4.78814 0.65922 7.75130 -8.40117 -47.33510 -20.82770 6.45546 4.53951 40.61140 3.91868 -42.85110 -38.96520 0.86032 2.90719 9.43639 -45.13280 18.56760 
22.78230 95.11990 -0.12691 -13.46660 -4.63414 -71.04750 -5.88325 11.52730 -1.26755 -0.00181 23.41110 -5.10353 2.74274 -5.98672 -18.13040 0.00000 0.00000 0.00000 -94.96370 -49.45910 -59.95270 -37.65830 51.22300 -79.91030 17.34080 7.31061 -13.45190 23.97440 0.17317 -1.66291 77.83770 -10.98380 64.93290 19.80760 33.93220 99.80800 16.06650 11.84100 9.00149 23.84540 0.89338 -23.45650 -32.86120 16.95490 95.97760 -8.64272 3.33043 0.79356 7.53103 -9.19128 -46.79940 -21.27090 6.67954 4.57249 41.06090 3.14420 -43.58800 -37.75850 -0.06622 2.48428 8.20535 -42.89500 16.63730 
23.07000 95.10480 0.16846 -12.94200 -4.91105 -68.41670 -5.22057 11.37490 -1.33625 -0.18503 23.01320 -4.79875 3.25623 -6.11890 -19.48690 0.00000 0.00000 0.00000 -91.95430 -47.06800 -58.26530 -35.57460 48.70800 -81.22180 16.82650 7.45613 -13.00540 24.03810 0.13118 -1.82546 77.37200 -11.04100 64.34780 20.19010 33.89950 99.49140 16.24570 11.84600 8.89406 23.17960 1.11550 -22.47350 -30.83740 15.92330 93.08080 -10.38140 2.17057 0.86351 7.35449 -10.36380 -47.24810 -21.79230 6.98831 4.74798 41.44000 2.24995 -44.33810 -36.43550 -0.99542 2.07495 6.98616 -40.38380 14.56530 
